<?xml version="1.0" encoding="UTF-8" standalone="no"?>
<!-- Created with Inkscape (http://www.inkscape.org/) -->

<svg
   xmlns:dc="http://purl.org/dc/elements/1.1/"
   xmlns:cc="http://creativecommons.org/ns#"
   xmlns:rdf="http://www.w3.org/1999/02/22-rdf-syntax-ns#"
   xmlns:svg="http://www.w3.org/2000/svg"
   xmlns="http://www.w3.org/2000/svg"
   xmlns:sodipodi="http://sodipodi.sourceforge.net/DTD/sodipodi-0.dtd"
   xmlns:inkscape="http://www.inkscape.org/namespaces/inkscape"
   width="48"
   height="48"
   id="svg2"
   version="1.1"
   inkscape:version="0.47 r22583"
   sodipodi:docname="New document 1">
  <title
     id="title3641">Target icon</title>
  <defs
     id="defs4">
    <inkscape:perspective
       sodipodi:type="inkscape:persp3d"
       inkscape:vp_x="0 : 526.18109 : 1"
       inkscape:vp_y="0 : 1000 : 0"
       inkscape:vp_z="744.09448 : 526.18109 : 1"
       inkscape:persp3d-origin="372.04724 : 350.78739 : 1"
       id="perspective10" />
    <filter
       inkscape:collect="always"
       id="filter3608"
       color-interpolation-filters="sRGB">
      <feGaussianBlur
         inkscape:collect="always"
         stdDeviation="7.1090045"
         id="feGaussianBlur3610" />
    </filter>
  </defs>
  <sodipodi:namedview
     id="base"
     pagecolor="#ffffff"
     bordercolor="#27f400"
     borderopacity="1"
     inkscape:pageopacity="0.0"
     inkscape:pageshadow="2"
     inkscape:zoom="13.1875"
     inkscape:cx="24"
     inkscape:cy="24"
     inkscape:document-units="px"
     inkscape:current-layer="layer1"
     showgrid="false"
     borderlayer="true"
     inkscape:showpageshadow="false"
     showborder="true"
     showguides="true"
     inkscape:guide-bbox="true"
     inkscape:window-width="1440"
     inkscape:window-height="850"
     inkscape:window-x="-8"
     inkscape:window-y="-8"
     inkscape:window-maximized="1" />
  <metadata
     id="metadata7">
    <rdf:RDF>
      <cc:Work
         rdf:about="">
        <dc:format>image/svg+xml</dc:format>
        <dc:type
           rdf:resource="http://purl.org/dc/dcmitype/StillImage" />
        <dc:title>Target icon</dc:title>
        <dc:date>7.3.2010</dc:date>
        <dc:creator>
          <cc:Agent>
            <dc:title>usiiik (usiiik@mail.com)</dc:title>
          </cc:Agent>
        </dc:creator>
        <dc:rights>
          <cc:Agent>
            <dc:title>PD</dc:title>
          </cc:Agent>
        </dc:rights>
        <dc:description>Target icon</dc:description>
        <dc:subject>
          <rdf:Bag>
            <rdf:li>target</rdf:li>
            <rdf:li>icon</rdf:li>
            <rdf:li>red</rdf:li>
            <rdf:li>black</rdf:li>
            <rdf:li>white</rdf:li>
          </rdf:Bag>
        </dc:subject>
        <cc:license
           rdf:resource="http://creativecommons.org/licenses/publicdomain/" />
      </cc:Work>
      <cc:License
         rdf:about="http://creativecommons.org/licenses/publicdomain/">
        <cc:permits
           rdf:resource="http://creativecommons.org/ns#Reproduction" />
        <cc:permits
           rdf:resource="http://creativecommons.org/ns#Distribution" />
        <cc:permits
           rdf:resource="http://creativecommons.org/ns#DerivativeWorks" />
      </cc:License>
    </rdf:RDF>
  </metadata>
  <g
     inkscape:label="Layer 1"
     inkscape:groupmode="layer"
     id="layer1"
     transform="translate(-611.83377,-499.02131)">
    <g
       id="g3627"
       transform="matrix(0.06367963,0,0,0.06367963,589.98444,484.66311)">
      <path
         sodipodi:type="arc"
         style="fill:#000000;fill-opacity:1;fill-rule:evenodd;stroke:none;filter:url(#filter3608)"
         id="path2830"
         sodipodi:cx="594.31281"
         sodipodi:cy="447.86731"
         sodipodi:rx="355.45023"
         sodipodi:ry="355.45023"
         d="m 949.76303,447.86731 c 0,196.30974 -159.14049,355.45023 -355.45022,355.45023 -196.30974,0 -355.45023,-159.14049 -355.45023,-355.45023 0,-196.30974 159.14049,-355.450226 355.45023,-355.450226 196.30973,0 355.45022,159.140486 355.45022,355.450226 z"
         transform="matrix(1.011744,0,0,1.011744,118.70759,149.23512)" />
      <path
         transform="translate(125.68719,154.49487)"
         d="m 949.76303,447.86731 c 0,196.30974 -159.14049,355.45023 -355.45022,355.45023 -196.30974,0 -355.45023,-159.14049 -355.45023,-355.45023 0,-196.30974 159.14049,-355.450226 355.45023,-355.450226 196.30973,0 355.45022,159.140486 355.45022,355.450226 z"
         sodipodi:ry="355.45023"
         sodipodi:rx="355.45023"
         sodipodi:cy="447.86731"
         sodipodi:cx="594.31281"
         id="path2816"
         style="fill:#ffffff;fill-opacity:1;fill-rule:evenodd;stroke:#000000;stroke-width:3;stroke-opacity:1"
         sodipodi:type="arc" />
      <path
         sodipodi:type="arc"
         style="fill:#1a1a1a;fill-opacity:1;fill-rule:evenodd;stroke:none"
         id="path2818"
         sodipodi:cx="594.31281"
         sodipodi:cy="447.86731"
         sodipodi:rx="355.45023"
         sodipodi:ry="355.45023"
         d="m 949.76303,447.86731 c 0,196.30974 -159.14049,355.45023 -355.45022,355.45023 -196.30974,0 -355.45023,-159.14049 -355.45023,-355.45023 0,-196.30974 159.14049,-355.450226 355.45023,-355.450226 196.30973,0 355.45022,159.140486 355.45022,355.450226 z"
         transform="matrix(0.86837031,0,0,0.86837031,203.9164,213.4475)" />
      <path
         sodipodi:type="arc"
         style="fill:#ffffff;fill-opacity:1;fill-rule:evenodd;stroke:none"
         id="path2820"
         sodipodi:cx="594.31281"
         sodipodi:cy="447.86731"
         sodipodi:rx="355.45023"
         sodipodi:ry="355.45023"
         d="m 949.76303,447.86731 c 0,196.30974 -159.14049,355.45023 -355.45022,355.45023 -196.30974,0 -355.45023,-159.14049 -355.45023,-355.45023 0,-196.30974 159.14049,-355.450226 355.45023,-355.450226 196.30973,0 355.45022,159.140486 355.45022,355.450226 z"
         transform="matrix(0.74870696,0,0,0.74870696,275.03386,267.04081)" />
      <path
         transform="matrix(0.60109972,0,0,0.60109972,362.75873,333.14927)"
         d="m 949.76303,447.86731 c 0,196.30974 -159.14049,355.45023 -355.45022,355.45023 -196.30974,0 -355.45023,-159.14049 -355.45023,-355.45023 0,-196.30974 159.14049,-355.450226 355.45023,-355.450226 196.30973,0 355.45022,159.140486 355.45022,355.450226 z"
         sodipodi:ry="355.45023"
         sodipodi:rx="355.45023"
         sodipodi:cy="447.86731"
         sodipodi:cx="594.31281"
         id="path2822"
         style="fill:#1a1a1a;fill-opacity:1;fill-rule:evenodd;stroke:none"
         sodipodi:type="arc" />
      <path
         sodipodi:type="arc"
         style="fill:#ffffff;fill-opacity:1;fill-rule:evenodd;stroke:none"
         id="path2824"
         sodipodi:cx="594.31281"
         sodipodi:cy="447.86731"
         sodipodi:rx="355.45023"
         sodipodi:ry="355.45023"
         d="m 949.76303,447.86731 c 0,196.30974 -159.14049,355.45023 -355.45022,355.45023 -196.30974,0 -355.45023,-159.14049 -355.45023,-355.45023 0,-196.30974 159.14049,-355.450226 355.45023,-355.450226 196.30973,0 355.45022,159.140486 355.45022,355.450226 z"
         transform="matrix(0.47747003,0,0,0.47747003,436.23344,388.51896)" />
      <path
         transform="matrix(0.33786279,0,0,0.33786279,519.20381,451.04448)"
         d="m 949.76303,447.86731 c 0,196.30974 -159.14049,355.45023 -355.45022,355.45023 -196.30974,0 -355.45023,-159.14049 -355.45023,-355.45023 0,-196.30974 159.14049,-355.450226 355.45023,-355.450226 196.30973,0 355.45022,159.140486 355.45022,355.450226 z"
         sodipodi:ry="355.45023"
         sodipodi:rx="355.45023"
         sodipodi:cy="447.86731"
         sodipodi:cx="594.31281"
         id="path2826"
         style="fill:#d40000;fill-opacity:1;fill-rule:evenodd;stroke:none"
         sodipodi:type="arc" />
      <path
         transform="translate(0,152.36218)"
         id="path3612"
         d="m 719.43128,95.260664 0,708.494346"
         style="fill:none;stroke:#000000;stroke-width:6;stroke-linecap:butt;stroke-linejoin:miter;stroke-opacity:1" />
      <path
         style="fill:none;stroke:#000000;stroke-width:6;stroke-linecap:butt;stroke-linejoin:miter;stroke-opacity:1"
         d="m 365.18411,601.87002 708.49439,0"
         id="path3614" />
      <path
         sodipodi:type="arc"
         style="fill:none;stroke:#000000;stroke-width:27.15094757"
         id="path3616"
         sodipodi:cx="594.31281"
         sodipodi:cy="447.86731"
         sodipodi:rx="355.45023"
         sodipodi:ry="355.45023"
         d="m 949.76303,447.86731 c 0,196.30974 -159.14049,355.45023 -355.45022,355.45023 -196.30974,0 -355.45023,-159.14049 -355.45023,-355.45023 0,-196.30974 159.14049,-355.450226 355.45023,-355.450226 196.30973,0 355.45022,159.140486 355.45022,355.450226 z"
         transform="matrix(0.22098677,0,0,0.22098677,588.66472,503.38942)" />
      <path
         transform="matrix(0.08813903,0,0,0.08813903,667.61783,562.88758)"
         d="m 949.76303,447.86731 c 0,196.30974 -159.14049,355.45023 -355.45022,355.45023 -196.30974,0 -355.45023,-159.14049 -355.45023,-355.45023 0,-196.30974 159.14049,-355.450226 355.45023,-355.450226 196.30973,0 355.45022,159.140486 355.45022,355.450226 z"
         sodipodi:ry="355.45023"
         sodipodi:rx="355.45023"
         sodipodi:cy="447.86731"
         sodipodi:cx="594.31281"
         id="path3618"
         style="fill:none;stroke:#000000;stroke-width:68.07427216"
         sodipodi:type="arc" />
      <path
         id="path3622"
         transform="translate(0,152.36218)"
         d="m 720,94.5625 c -190.64053,0 -346.23512,150.07433 -355.0625,338.53125 235.63168,-82.12984 472.1202,-97.44221 710.0313,-1.78125 C 1065.2448,243.69491 910.03743,94.5625 720,94.5625 z"
         style="opacity:0.28999999;fill:#ffffff;fill-opacity:1;fill-rule:evenodd;stroke:none" />
    </g>
  </g>
</svg>
